<svg width="25" height="17" viewBox="0 0 25 17" fill="none" xmlns="http://www.w3.org/2000/svg">
<path d="M24.8474 8.86806L17.0349 16.6806C16.8314 16.884 16.5018 16.884 16.2984 16.6806C16.095 16.4771 16.095 16.1475 16.2984 15.9441L23.2219 9.02065L0.520834 9.02065C0.232944 9.02065 -1.52588e-05 8.78769 -1.52588e-05 8.4998C-1.52588e-05 8.21191 0.232944 7.97895 0.520834 7.97895L23.2219 7.97895L16.2984 1.05556C16.095 0.852091 16.095 0.522503 16.2984 0.319085C16.4001 0.217376 16.5334 0.166497 16.6667 0.166497C16.7999 0.166497 16.9332 0.217376 17.0349 0.319085L24.8474 8.13159C25.0509 8.335 25.0509 8.66459 24.8474 8.86806Z" fill="#2C3E50" fill-opacity="0.3"/>
</svg>
