<svg width="59" height="59" viewBox="0 0 59 59" fill="none" xmlns="http://www.w3.org/2000/svg">
<path d="M51.3255 0.148438H7.44806C3.51644 0.148438 0.317383 3.34749 0.317383 7.27912V37.4768C0.317383 41.4078 3.51579 44.6062 7.44806 44.6062H23.0372V56.6796H10.9541C10.4172 56.6796 9.98257 57.1142 9.98257 57.6512C9.98257 58.1881 10.4172 58.6227 10.9541 58.6227H24.0088H34.7641H47.8188C48.3557 58.6227 48.7903 58.1881 48.7903 57.6512C48.7903 57.1142 48.3557 56.6796 47.8188 56.6796H35.7357V44.6062H51.3248C55.2552 44.6062 58.4529 41.4078 58.4529 37.4768V7.27912C58.4536 3.34749 55.2558 0.148438 51.3255 0.148438ZM7.44806 2.09158H51.3255C54.1845 2.09158 56.5104 4.41881 56.5104 7.27912V30.1758H2.26117V7.27912C2.26117 4.41817 4.58776 2.09158 7.44806 2.09158ZM33.7932 56.6796H24.981V44.6062H33.7932V56.6796ZM51.3255 42.6631H34.7647H24.0095H7.44871C4.58841 42.6631 2.26117 40.3365 2.26117 37.4768V32.1196H56.5104V37.4768C56.5104 40.3365 54.1845 42.6631 51.3255 42.6631Z" fill="black"/>
</svg>
