<svg width="25" height="17" viewBox="0 0 25 17" fill="none" xmlns="http://www.w3.org/2000/svg">
<path d="M0.152588 8.13161L7.96509 0.319104C8.16855 0.115637 8.49814 0.115637 8.70156 0.319104C8.90503 0.522571 8.90503 0.852161 8.70156 1.05558L1.77812 7.97902H24.4792C24.767 7.97902 25 8.21198 25 8.49987C25 8.78776 24.767 9.02072 24.4792 9.02072H1.77812L8.70156 15.9441C8.90503 16.1476 8.90503 16.4772 8.70156 16.6806C8.59985 16.7823 8.46655 16.8332 8.3333 16.8332C8.20005 16.8332 8.0668 16.7823 7.96504 16.6806L0.152538 8.86808C-0.0508785 8.66466 -0.0508785 8.33507 0.152588 8.13161Z" fill="#2C3E50" fill-opacity="0.3"/>
</svg>
